<?xml version="1.0" encoding="utf-8"?>
<!-- Generator: Adobe Illustrator 19.2.1, SVG Export Plug-In . SVG Version: 6.00 Build 0)  -->
<!DOCTYPE svg PUBLIC "-//W3C//DTD SVG 1.1//EN" "http://www.w3.org/Graphics/SVG/1.1/DTD/svg11.dtd">
<svg version="1.1" id="Layer_1" xmlns="http://www.w3.org/2000/svg" xmlns:xlink="http://www.w3.org/1999/xlink" x="0px" y="0px"
	 viewBox="0 0 58 74" style="enable-background:new 0 0 58 74;" xml:space="preserve">
<style type="text/css">
	.st0{fill:#C8102E;}
	.st1{fill:#4B4F55;}
	.st2{fill:#FFFFFF;}
</style>
<rect x="0" y="55.5" class="st0" width="58" height="18.5"/>
<rect x="0" y="0" class="st1" width="58" height="53.7"/>
<rect x="0" y="53.7" class="st2" width="58" height="1.8"/>
<g>
	<path class="st2" d="M14.5,68.3c-0.4,0.2-1.3,0.4-2.5,0.4c-3.4,0-5.1-2-5.1-4.7c0-3.2,2.4-5,5.3-5c1.1,0,2,0.2,2.4,0.4l-0.5,1.7
		c-0.4-0.2-1.1-0.3-1.9-0.3c-1.7,0-3.1,1-3.1,3.1c0,1.9,1.2,3.1,3.1,3.1c0.7,0,1.4-0.1,1.9-0.3L14.5,68.3z"/>
	<path class="st2" d="M19.1,65.3c-1.2,0-2.1,0.3-2.1,1.1c0,0.5,0.4,0.8,0.9,0.8c0.5,0,1-0.3,1.1-0.8c0-0.1,0-0.2,0-0.4V65.3z
		 M21.2,66.9c0,0.6,0,1.3,0.1,1.6h-2l-0.1-0.7h0c-0.5,0.5-1.2,0.8-2,0.8c-1.4,0-2.3-1-2.3-2.1c0-1.8,1.6-2.6,4.2-2.6v-0.1
		c0-0.4-0.2-0.9-1.3-0.9c-0.7,0-1.5,0.2-2,0.5l-0.4-1.4c0.5-0.3,1.5-0.6,2.7-0.6c2.4,0,3.1,1.3,3.1,3V66.9z"/>
	<path class="st2" d="M29.4,64.5c0-0.1,0-0.3,0-0.4c-0.2-0.6-0.6-0.9-1.2-0.9c-0.8,0-1.4,0.7-1.4,1.9c0,1,0.5,1.8,1.4,1.8
		c0.6,0,1-0.4,1.2-0.9c0.1-0.2,0.1-0.4,0.1-0.6V64.5z M31.6,67.5c0,1.3-0.3,2.4-1.1,3.1c-0.8,0.6-1.8,0.8-2.9,0.8
		c-0.9,0-1.9-0.2-2.5-0.5l0.4-1.6c0.4,0.3,1.2,0.5,2.1,0.5c1,0,1.8-0.5,1.8-1.8v-0.4h0c-0.4,0.6-1.1,0.9-1.9,0.9c-1.8,0-3-1.4-3-3.3
		c0-2.2,1.5-3.6,3.2-3.6c1,0,1.6,0.4,1.9,1h0l0.1-0.8h1.9c0,0.4-0.1,1-0.1,2V67.5z"/>
	<path class="st2" d="M36.2,65.3c-1.2,0-2.1,0.3-2.1,1.1c0,0.5,0.4,0.8,0.9,0.8c0.5,0,1-0.3,1.1-0.8c0-0.1,0-0.2,0-0.4V65.3z
		 M38.4,66.9c0,0.6,0,1.3,0.1,1.6h-2l-0.1-0.7h0c-0.5,0.5-1.2,0.8-2,0.8c-1.4,0-2.3-1-2.3-2.1c0-1.8,1.6-2.6,4.2-2.6v-0.1
		c0-0.4-0.2-0.9-1.3-0.9c-0.7,0-1.5,0.2-2,0.5l-0.4-1.4c0.5-0.3,1.5-0.6,2.7-0.6c2.4,0,3.1,1.3,3.1,3V66.9z"/>
	<path class="st2" d="M38.9,64c0-1,0-1.7-0.1-2.2h1.9l0.1,1.3h0.1c0.4-1,1.2-1.4,1.9-1.4c0.2,0,0.3,0,0.5,0v2
		c-0.2,0-0.3-0.1-0.6-0.1c-0.8,0-1.4,0.4-1.5,1.1c0,0.1,0,0.3,0,0.5v3.5h-2.2V64z"/>
	<path class="st2" d="M46.1,61.7l1.1,3.4c0.1,0.4,0.3,0.9,0.3,1.3h0.1c0.1-0.4,0.2-0.9,0.3-1.3l0.9-3.3h2.3l-1.7,4.5
		c-1,2.7-1.7,3.8-2.5,4.5c-0.8,0.6-1.6,0.9-2.1,0.9l-0.5-1.8c0.3-0.1,0.6-0.2,1-0.4c0.3-0.2,0.7-0.5,0.9-0.9
		c0.1-0.1,0.1-0.2,0.1-0.3c0-0.1,0-0.2-0.1-0.3l-2.6-6.2H46.1z"/>
	<rect x="21.8" y="58.6" class="st2" width="2.2" height="9.9"/>
</g>
<g>
	<path class="st2" d="M30,12.2l-0.6-7.9l-0.6,7.9C29.1,12.2,29.6,12.2,30,12.2"/>
	<path class="st2" d="M39.8,40.3L39.8,40.3c0-0.2,0-0.5-0.1-0.6c-0.1-0.2-0.3-0.3-0.6-0.3c-0.1,0-0.2,0-0.2,0l-0.2,1.7
		c0,0,0.1,0,0.1,0C39.4,41.2,39.7,40.9,39.8,40.3"/>
	<path class="st2" d="M27.2,12.3l-2-5.8l0.8,6.1C26.3,12.5,26.8,12.4,27.2,12.3"/>
	<path class="st2" d="M33.5,6.6l-1.9,5.7c0.4,0.1,0.8,0.2,1.2,0.3L33.5,6.6z"/>
	<path class="st2" d="M19.6,39.6c-0.1-0.1-0.2-0.1-0.3-0.1c0,0,0,0-0.1,0c-0.2,0-0.3,0.1-0.4,0.2c-0.1,0.2-0.2,0.4-0.1,0.7
		c0.1,0.5,0.4,0.8,0.7,0.8c0.4,0,0.6-0.4,0.5-0.9C19.9,40,19.8,39.7,19.6,39.6"/>
	<path class="st2" d="M35.8,39.4c0-0.1,0-0.2-0.1-0.2c-0.1-0.1-0.2-0.1-0.3-0.1c-0.1,0-0.2,0-0.2,0l0,0.6l0.2,0
		C35.6,39.7,35.8,39.6,35.8,39.4"/>
	<path class="st2" d="M24.8,29.5l-0.5-1.8l1.7,0.4l0.3-1l1.3,1.6c0,0,0,0,0,0c0,0,0-0.1,0-0.1l-0.5-3l1,0.5c0.1,0.1,0.1,0.1,0.2,0.1
		c0,0,0,0,0,0l1-2l1,2c0,0,0,0,0,0c0,0,0.1,0,0.1,0l1-0.5l-0.5,3c0,0.1,0,0.1,0,0.1c0,0,0,0,0,0l1.4-1.6l0.3,1l1.7-0.4l-0.5,1.8
		c0,0.1,0,0.1,0,0.2c0,0,0,0,0,0l0.8,0.4l-2.6,2.2c0,0-0.1,0.1,0,0.1l0.3,1l-2.6-0.3l0.1,2.2h-0.8l0.1-2.2l-2.7,0.3l0.3-1
		c0,0,0-0.1,0-0.1L24,30.1l0.8-0.4c0,0,0.1,0,0.1,0C24.8,29.6,24.8,29.6,24.8,29.5 M22.6,32.4c0.5,0.5,6,3.9,6.8,3.9
		c0.7,0,6.2-3.4,6.8-3.9c0.8-0.7,1.2-1.8,0.8-3.7c0-0.1,0-0.2-0.1-0.3c0-0.2-1-2.8-1-3.8c0-0.6,0.1-1,0.3-1.6H22.6
		c0.2,0.6,0.3,1.1,0.3,1.6c0,1-1,3.6-1,3.8c0,0.1-0.1,0.2-0.1,0.3C21.4,30.7,21.8,31.7,22.6,32.4"/>
	<path class="st2" d="M24.4,13.1L22,9.3l1.3,4.3C23.6,13.5,24,13.3,24.4,13.1"/>
	<path class="st2" d="M43.1,34.3c-0.4,0.1-1.3,0-1.5,0c-0.1,0-0.2,0-0.3,0.1c-0.1,0.1-0.2,0.2-0.2,0.3c0,0.3-0.2,0.5-0.5,0.8
		c-0.2,0.2-0.7,0.9-0.8,1.2c0.1,0,0.4,0,1.2-0.2c0.3-0.1,0.7-0.3,0.8-0.3c0,0,0-0.1,0-0.2c0-0.2,0.1-0.3,0.1-0.4
		c0-0.1,0.1-0.5,0.7-0.5l0.2,0c1.4,0,2.4,0,2.5,0c0.2,0,0.3-0.2,0.4-0.2c0,0,0,0,0-0.1c-0.3-0.4-0.7-1.3-0.8-1.9
		c0-0.3,0-0.6,0.1-0.8c0.1-0.3,0.4-0.5,0.6-0.7c0.1-0.1,0.1-0.1,0.1-0.1c0.2-0.2,0.6-0.7,0.5-0.9c0-0.1,0-0.2-0.2-0.3
		c-1-0.4-2.5-1-3.6-1.7c0.2,0.8,0.1,1.4-0.2,1.7c-0.4,0.4-0.1,1.1,0.3,1.8c0.2,0.3,0.3,0.5,0.4,0.7l0,0.1c0.5,0.8,0.7,1.2,0.6,1.5
		C43.5,34.2,43.3,34.3,43.1,34.3"/>
	<path class="st2" d="M31.7,39.4c0-0.1,0-0.2-0.1-0.2c0,0.1,0,0.2-0.1,0.2c-0.1,0.2-0.1,0.3-0.2,0.5c0.1,0,0.3,0,0.4,0L31.7,39.4z"
		/>
	<path class="st2" d="M40.8,17.8C40.7,17.8,40.7,17.8,40.8,17.8c-0.3,0-0.5-0.1-0.6-0.2c0-0.1,0-0.1,0-0.1c0.2-0.5,0.6-0.5,0.9-0.4
		c0.1,0.1,0.3,0.2,0.2,0.3C41.2,17.7,40.9,17.8,40.8,17.8 M53.9,24.3c-0.1-0.5-0.4-0.8-0.8-1.1c-0.2-0.1-0.3-0.3-0.5-0.4
		c-0.1-0.1-0.3-0.3-0.5-0.5c-0.5-0.6-1.4-1.5-2.2-1.6c-0.5,0-0.7,0.1-0.9,0.3c-0.2,0.2-0.3,0.6-0.3,1.1c0,0.7,0.8,1.6,1.4,2.3
		c0.7,0.8,1.4,1.4,1.5,2.2c0,0.7-0.8,1.2-1,1c-0.4-0.2-3.2-3.9-3.9-6.9c-0.7-3.1-1.1-3.9-2.2-4.5c-0.3-0.2-0.5-0.3-0.6-0.4
		c-0.1-0.1-0.2-0.1-0.3-0.2l0,0l0,0c-0.1-0.1-0.1-0.2-0.1-0.3c0-0.1,0-0.1,0-0.2c-0.2-0.4-0.8-0.3-0.8-0.3c-0.8,0.2-2.1,0.3-3.6,0.1
		c1.3,0.9,2.9,0.6,2.9,0.6c0,0,0.1,0,0.2,0c0,0,0,0.1,0,0.1c-0.1,0.2-0.7,0.5-1.5,0.6c-0.4,0.1-0.4,0.1-0.4,0.4
		c0,0.1-0.1,0.2-0.1,0.4l0,0c-0.3,0.4-1.2,1.9-1.4,2.5c0,0.1,0,0.3,0.1,0.4c0.2,0.3,0.6,0.7,0.8,0.7l0,0c0.1,0,0.3-0.1,0.4-0.2
		c0.3-0.4,1.2-0.4,1.4-0.3c0.2,0,0.8-0.1,1.2-0.8c0.1-0.2,0.3,0.1,0.4,0.3c0,0.2-0.6,0.9-1.5,1.2c0,0-0.5,0.2-0.7,0.5
		c-0.2,0.3-0.4,0.9-0.5,1.2c0.1,0,0.6,0,1.1-0.2c0,0,0,0,0,0c0.1,0,0.1,0,0.2,0.1c0,0,0,0.1,0,0.2c-0.1,0.2-0.5,0.4-1.1,0.4
		c-0.2,0-2.1,0-2.6,0.5c-0.1,0.1-0.1,0.2-0.1,0.4C37.8,25,38,26,38.4,27c0.1,0.2,0.4,0.9,0.8,1.2c0,0,0.4-0.4,0.4-0.8
		c0.1-0.4-0.1-0.9-0.2-1c0,0-0.1,0-0.1,0c-0.2,0-0.3,0-0.3-0.1c-0.1-0.2-0.1-0.4-0.1-0.5c0-0.1,0.1-0.2,0-0.3
		c-0.1-0.1-0.1-0.2-0.2-0.2c-0.1-0.1-0.1-0.3-0.1-0.4c0.1-0.3,0.5-0.2,0.7-0.2c0.4,0,0.7,0.2,1.1,0.3c0.2,0.1,0.4,0.1,0.6,0.1
		c0.4,0.1,1.1,0.2,1.5,0c0.3-0.2,0.5-0.8,0.6-0.9c0-0.1,0.2-0.3,0.2-0.3c0.1,0,0.1,0.2,0.1,0.2c0,0.3,0,1.3-0.6,1.6
		c-0.2,0.1-0.6,0.2-1,0.2h0c-0.5,0-0.9-0.1-1.3-0.2c0.7,1.7,2.5,2.6,4.4,3.4c1.3,0.5,2.3,1,2.3,1.8c0,0.1,0,0.2,0,0.4
		c-0.1,0.9-0.6,2.4,1,4.3c0.4,0.4,1.2,1.7,0.3,3.3c-0.1,0.2-0.2,0.4-0.4,0.6c-0.2,0.3-1,0.8-1,0.9c0.1,0.2,0.9,0.3,1.3,0.3
		c0.3,0,0.6,0,0.8-0.2c0,0,0-0.2,0.1-0.3c0-0.2,0-0.4,0.2-0.5c0.1-0.1,0.1-1,0.2-1.4c0.1-0.6,0.1-1,0.2-1.2c0.1-0.1,0.2-0.3,0.2-0.4
		c0.2-0.2,0.3-0.5,0.3-0.6c0-0.1-0.1-0.2-0.2-0.3c-0.2-0.3-0.5-0.7-0.3-1.3c0.2-0.4,0.4-0.8,0.6-1l0,0c0.1-0.2,0.3-0.4,0.4-0.6
		c0.2-0.5,0.7-1.7,0.7-2.3c0-0.1-0.1-0.4-0.6-1.6l0-0.1l0.1-0.1c0.2-0.2,0.9-1,0.9-1.7c0.1-1-0.9-1.9-1.7-2.7
		c-0.7-0.7-1.3-1.2-1.4-1.9c-0.1-0.4,0-0.7,0.2-0.9c0.1-0.1,0.3-0.2,0.5-0.2c0.6-0.1,1.8,1,2.3,1.7c0.2,0.2,0.2,0.6,0.2,0.8
		c0,0.2,0,0.4,0,0.6c0,0.2,0.1,0.3,0.2,0.4c0.1,0.2,0.2,0.3,0.3,0.7c0.2-0.4,0.2-0.5,0.2-0.6c0.1-0.3,0.2-0.3,0.2,0
		c-0.1,0.7,0.1,1.4,0.3,1.5c0,0,0.1,0.1,0.1,0.1c-0.1-0.4,0-0.7,0.1-1.1C53.8,25,53.9,24.6,53.9,24.3"/>
	<path class="st2" d="M16.6,17c0.3-0.1,0.7-0.1,0.9,0.4v0c0,0,0,0.1,0,0.1c-0.1,0.1-0.3,0.2-0.5,0.2c0,0-0.1,0-0.1,0
		c-0.2,0-0.4-0.1-0.5-0.5C16.3,17.2,16.5,17.1,16.6,17 M10.6,39.1L10.6,39.1c-0.3-0.1-0.3-0.3-0.4-0.6c0-0.1,0-0.2-0.1-0.4
		C10,38,10,36.7,10,36.5c0.1-1,0.8-1.9,1.4-2.6c0.6-0.8,1.2-1.5,1.1-2.2c0-0.1-0.1-0.2-0.1-0.3c-0.1-0.3-0.3-0.7,0-1.2
		c0.5-0.8,1.5-1.2,2.4-1.6c3.2-1.3,3.6-3.4,3.5-3.6c-0.1-0.2-0.3-0.2-0.9,0c-0.5,0.2-0.8,0.2-1.1,0.2c-0.8,0-1-0.7-1.1-0.7
		c0-0.1,0.1-0.1,0.1-0.1c0.1,0,0.8,0.6,1.9,0c0.9-0.4,2.4-0.4,2.9,0c0.1,0.1,0.2,1-0.2,1.4c-0.3,0.2-0.3,0.4-0.3,0.5
		c0,0.2-0.2,0.3-0.4,0.3c-0.1,0-0.1,0-0.2,0c-0.3,0-0.6,0.1-0.7,0.2c-0.1,0.1,0.1,0.8,0.2,1.2c0.1,0.3,0.3,0.6,0.3,0.6
		c0.1,0,0.4-0.2,0.5-0.3c0.1-0.1,0.2-0.2,0.3-0.3c0.3-0.2,0.4-0.6,0.6-0.8c0.1-0.1,0.1-0.1,0.2-0.1c0.1-0.1,0.7-2.1,0.7-2.9
		c0-0.7-1-1-1.4-1.2c-0.2,0-3.2-0.9-3.3-0.9c-0.6-0.2-0.8-0.9-0.6-0.9c0.1,0,0.1,0.2,0.7,0.4c0.2,0,1.3,0.4,1.7,0.6
		c-0.3-0.8-1.4-1.3-3.4-2.6c-0.6-0.4-0.9-0.9-0.9-1.3c0-0.2,0.2-0.3,0.2-0.3l0,0.1c0.6,1.2,1.4,1.2,1.7,1.1c0.2,0,0.3,0,0.4,0
		c0,0,0,0,0.1,0c0.2,0.1,0.3,0.3,0.9,0.4c0.1,0,0.5,0.4,0.5,0.4s0.1,0.1,0.3,0.1c0.1,0,0.2,0,0.2-0.1c0,0,0,0,0-0.1
		c-0.4-0.3-0.3-0.6-0.3-0.6c0.2-0.1,0.7,0.2,0.7,0.3c0.1,0.1,0.2,0.1,0.3,0.1c0.1,0,0.8-0.3,0.5-0.8c-0.1-0.1-0.3-0.3-0.6-0.7
		c-0.5-0.4-1-1.1-1.1-1.4c-0.2-0.4-0.5-0.8-0.9-0.9c0,0-0.1-0.1-0.1-0.1c0-0.1,0.2-0.2,0.4-0.3c0.2-0.1,0.5-0.2,0.5-0.4
		c0,0,0,0,0-0.1c-0.1-0.1-0.4-0.2-0.8-0.2c-0.3,0-0.6,0.1-0.7,0.3l0,0l0,0c-0.2-0.1-0.6-0.1-1.2-0.1l-0.1,0c-0.4,0-0.8,0.2-1,0.3
		c-0.2,0.1-0.4,0.2-0.7,0.2c-0.1,0-0.3,0-0.5-0.1c-0.1,0.3,0,0.5,0.2,0.7l0.1,0.1l-0.1,0c-0.5,0.1-0.7,0.4-0.8,0.6
		C12.1,16.8,12,17,11.6,17c-0.1,0-0.3,0-0.5-0.1c0,0,0,0,0,0c0,0.2,0,0.3,0,0.4c0.1,0.2,0.4,0.3,0.7,0.3l0.1,0l-0.1,0.1
		c-0.6,0.5-0.7,1.3-0.8,2.1c-0.1,0.6-0.1,1.1-0.4,1.3c0.2,0.1,0.3,0.1,0.4,0.1c0.2,0,0.3-0.1,0.3-0.2c0,0,0-0.1,0.1-0.1l0,0l0,0
		c0.1,0.1,0.3,0.9,0.2,1.7c-0.1,0.5-0.2,1.1-0.8,1.5c0.2,0.1,0.6,0,0.8-0.1c0.3-0.2,0.5-0.5,0.7-0.8c0.1-0.1,0.2-0.6,0.3-0.6
		c0.1,0,0.2,0.2,0.2,0.3c0.2,0.8-0.9,2.2-2.3,3c-2.2,1.3-2.5,2.8-2.6,3.2l0,0.1l-0.1,0c-0.3-0.3-0.4-0.5-0.4-0.8
		c0-0.8,0.5-1.6,1-2.4c0.4-0.8,0.9-1.6,1-2.4c0.3-1.8-0.3-2.7-0.6-3.3c-0.1-0.2-0.3-0.4-0.3-0.6c0-0.2,0.1-0.4,0.3-0.4
		c0.2,0,0.4,0.1,0.5,0.2c0,0,0.1,0,0.1-0.1c0-0.1,0-0.2-0.1-0.4c-0.2-0.2-0.5-0.4-1-0.4l0,0c-0.7,0-1.1,1-1.1,1.5l0,0l0,0
		c-0.1,0-0.1,0-0.2,0c-1.7,0-2.2,1.8-2.3,2.9c0,0.5,0,1,0.1,1.5c0.1,0.5,0.1,0.9,0,1.3c-0.1,0.2-0.3,0.2-0.4,0.2c-0.1,0-0.2,0-0.2,0
		c0,0,0,0,0,0.1c0,0,0,0.1,0.1,0.1c0.2,0.2,0.5,0.3,0.7,0.2c0.4-0.1,0.6-1,0.7-1.5c0-0.2,0.1-0.3,0.1-0.4c0-0.1,0.1-0.2,0.1-0.2
		c0.1,0,0.1,0.2,0.2,0.8c0,0.1,0.1,0.1,0.1,0.1c0,0,0.1,0,0.1-0.1c0-0.1,0.1-0.3,0.1-0.4C6.4,24.5,6.5,24,7,24c0.1,0,0.1,0,0.2,0.1
		c0.2,0.2,0.1,0.8-0.2,1.8c-0.3,0.9-0.6,1.9-0.5,2.6c0.2,1.4,1,1.8,1.2,1.9l0,0l0,0C7.8,31,8,31.7,8.3,32.3c0.5,1.2,0.7,2.3,0.4,3
		l0,0c-0.1,0.1-0.2,0.2-0.2,0.4c0,0.1,0,0.3,0.2,0.5c0.3,0.4,0.1,1.4-0.1,2c0,0.1,0.1,0.4,0.4,0.6C9,38.9,9.1,39.2,9,39.5
		c0,0.3,0,0.6,0.1,0.8l0,0c0.2,0,0.4,0.1,0.7,0.1c0.6,0,1.3-0.1,1.3-0.1c0,0,0,0,0-0.1c0,0,0-0.1,0-0.1C11.1,40,10.7,39.3,10.6,39.1
		"/>
	<path class="st2" d="M17.1,43.5l-0.4,0.1l-0.3-2.2c-1.7,0.2-3.4,0.4-5,0.7c1.2,0.8,2.3,1.7,3.5,2.6c2.3-0.4,4.7-0.7,7-0.9
		c-0.3-0.2-0.7-0.5-1-0.7C19.6,43.1,18.3,43.3,17.1,43.5"/>
	<path class="st2" d="M16.8,36.3c0.1,0.1,1.4,0.3,1.8,0.3c0-0.2-0.2-1-0.3-1.2c-0.1-0.1-0.1-0.1-0.2-0.1c-0.1-0.1-0.4-0.2-0.5-0.5
		c-0.1-0.2-0.3-0.4-0.7-0.4c-0.7-0.2-1.9-0.7-1.9-1.1c0-0.4,0.3-0.7,0.6-1.1c0.4-0.5,0.8-1,0.7-1.6l0,0c-0.1-0.3-0.2-0.8-0.5-1.2
		c-0.2-0.2-0.5-0.3-0.7-0.2c-1.7,0.6-2.1,1.4-2.1,1.4c0,0.1,0.1,0.2,0.3,0.3c0.5,0.4,1.3,1.1,0.3,3.1c0,0.1,0,0.1,0,0.2
		c0.1,0.1,0.2,0.1,0.3,0.1c0.8-0.2,1.8,0.3,2.2,0.6c0.2,0.3,0.4,0.3,0.5,0.3l0,0c0.1,0,0.1,0,0.2,0.1c0.1,0.1,0.1,0.3,0.1,0.4
		C16.7,36,16.7,36.3,16.8,36.3"/>
	<path class="st2" d="M34.9,19.1c-0.7,0.2-1.4,0.3-2,0.3c-1.8,0-3.2-0.4-3.5-0.6c-0.4,0.2-1.8,0.6-3.5,0.6c-0.7,0-1.3-0.1-2-0.3
		c-0.2,0-0.3,0-0.4,0.2c-0.5,1-1,1.7-1.4,2.2l0.3,0.7l2.6-1l1.9,0.9l2.7-1.8l2.5,1.8l1.8-0.9l2.7,1l0.3-0.7
		c-0.4-0.5-0.9-1.2-1.4-2.2C35.2,19.2,35.1,19.1,34.9,19.1"/>
	<path class="st2" d="M34,45.3c-0.2-1.3-1.1-2.2-1.1-2.2s-2.1,1.8-3.5,3.1c-1.4-1.3-3.5-3.1-3.5-3.1S25,44,24.7,45.3
		c-0.2,1-0.6,1.2-0.6,1.2l1.5,1.4c0,0,0.6-0.5,0.7-1.4c0.1-1,0.8-1.6,0.8-1.6s1,0.9,1.9,1.6c-0.6,0.6-1.1,1-1.1,1c0,0-0.1,0.1,0,0.2
		c0.1,0.1,0.2,0.1,0.2,0.1c0,0,0.5-0.5,1.1-1c0.6,0.5,1.1,1,1.1,1c0,0,0.1,0,0.2-0.1c0.1-0.1,0-0.2,0-0.2c0,0-0.5-0.4-1.1-1
		c0.9-0.8,1.9-1.6,1.9-1.6s0.7,0.7,0.8,1.6c0.1,0.8,0.7,1.4,0.7,1.4l1.5-1.4C34.6,46.4,34.1,46.2,34,45.3"/>
	<path class="st2" d="M29.6,38.2l0,0.1c-0.3,0.9-0.5,1.9-0.7,2.8l0,0.1l-0.1,0c-0.2,0-0.5,0-0.7,0l-0.1,0l0-0.1
		c-0.1-0.4-0.2-0.8-0.3-1.2c0-0.1-0.1-0.2-0.1-0.4c0,0.1,0,0.3-0.1,0.4c-0.1,0.4-0.2,0.8-0.2,1.2l0,0.1l-0.1,0c-0.2,0-0.5,0-0.7,0
		l-0.1,0l0-0.1c-0.3-0.9-0.5-1.9-0.8-2.8l0-0.1l0.1,0c0.2,0,0.5,0,0.7,0l0.1,0l0,0.1c0.1,0.4,0.2,0.8,0.3,1.1c0,0.2,0.1,0.4,0.1,0.5
		c0-0.2,0.1-0.4,0.1-0.6c0.1-0.4,0.1-0.8,0.2-1.1l0-0.1l0.1,0c0.2,0,0.5,0,0.7,0l0.1,0l0,0.1c0.1,0.4,0.2,0.8,0.3,1.2
		c0,0.1,0.1,0.3,0.1,0.5c0-0.1,0-0.2,0-0.3l0-0.2c0.1-0.4,0.2-0.8,0.2-1.1l0-0.1l0.1,0c0.2,0,0.5,0,0.7,0L29.6,38.2z M30.2,41.1
		c0.3-0.9,0.6-1.9,0.9-2.8l0-0.1l0.1,0c0.3,0,0.6,0,0.9,0l0.1,0l0,0.1c0.3,0.9,0.5,1.9,0.8,2.8l0,0.1l-0.1,0c-0.2,0-0.5,0-0.7,0
		l-0.1,0l0-0.1C32.1,41,32,40.7,32,40.5c-0.2,0-0.5,0-0.7,0c-0.1,0.2-0.1,0.4-0.2,0.7l0,0.1l-0.1,0c-0.2,0-0.4,0-0.7,0l-0.1,0
		L30.2,41.1z M34.4,38.4L34.4,38.4c0.3,0,0.6,0,1,0c0.5,0,0.8,0.1,1,0.3c0.2,0.2,0.3,0.4,0.2,0.7c0,0.3-0.3,0.6-0.5,0.7
		c0.1,0.1,0.2,0.3,0.3,0.5c0,0.1,0,0.2,0,0.3l0,0c0,0.2,0.1,0.4,0.1,0.5l0,0.1l-0.1,0c-0.2,0-0.4,0-0.7-0.1l0,0l0,0
		c0-0.1-0.1-0.4-0.1-0.7c-0.1-0.3-0.2-0.4-0.4-0.4l-0.1,0L35,41.4l-0.1,0c-0.2,0-0.4,0-0.6,0l-0.1,0L34.4,38.4z M38.1,38.7
		L38.1,38.7c0.3,0,0.7,0,1,0c0.6,0.1,0.9,0.2,1.2,0.5c0.3,0.3,0.4,0.7,0.4,1.2c-0.1,0.6-0.4,1-0.7,1.1c-0.3,0.2-0.6,0.2-1,0.2
		c-0.1,0-0.3,0-0.4,0c-0.4,0-0.6-0.1-0.7-0.1l-0.1,0L38.1,38.7z M24.5,41.3c-0.2,0-0.4,0-0.7,0l0,0l0,0c-0.2-0.3-0.5-0.7-0.7-1
		c-0.2-0.2-0.3-0.4-0.4-0.6c0,0.3,0.1,0.5,0.1,0.8l0.1,0.9l-0.1,0c-0.2,0-0.4,0-0.6,0.1l-0.1,0l0-0.2l-0.2-2.7l0.1,0
		c0.3,0,0.5,0,0.8-0.1l0,0l0,0c0.2,0.3,0.5,0.7,0.7,1c0.1,0.2,0.2,0.3,0.3,0.5c0-0.2,0-0.5-0.1-0.7l-0.1-0.9l0.1,0
		c0.2,0,0.4,0,0.6,0l0.1,0l0,0.1L24.5,41.3L24.5,41.3z M19.5,41.8c-0.1,0-0.1,0-0.2,0c-0.7,0-1.3-0.5-1.4-1.3
		c-0.1-0.4,0-0.9,0.3-1.2c0.2-0.3,0.6-0.5,1-0.6c0.4-0.1,0.8,0,1.1,0.3c0.3,0.2,0.5,0.6,0.5,1C20.9,41.1,20.4,41.7,19.5,41.8
		 M16.8,38.7l0.6,3.9c3.9-0.6,7.9-0.9,11.9-0.9s7.9,0.3,11.9,0.9l0.6-3.9C33.4,37.4,25.1,37.4,16.8,38.7"/>
	<path class="st2" d="M25.7,18.2c1.1-0.6,2.4-0.9,3.7-0.9s2.5,0.2,3.7,0.9c0.4-0.7,1.6-2.9,1.8-3.2c-0.3-0.2-0.7-0.4-1-0.5
		c0,0-0.1,0-0.1,0c-0.1,0.3-0.3,0.6-0.4,1c-0.4-0.2-0.7-0.3-1.1-0.4c0.1-0.3,0.2-0.7,0.3-1c-0.4-0.1-0.8-0.2-1.2-0.3
		c-0.1,0.3-0.1,0.7-0.2,1c-0.4-0.1-0.8-0.1-1.2-0.1c0-0.3,0-0.7,0.1-1c-0.4,0-0.8,0-1.2,0c0,0.3,0,0.7,0.1,1c-0.4,0-0.8,0.1-1.2,0.1
		c-0.1-0.3-0.1-0.7-0.2-1c-0.4,0.1-0.8,0.2-1.2,0.3c0.1,0.3,0.2,0.6,0.3,1c-0.4,0.1-0.7,0.2-1.1,0.4c-0.1-0.3-0.3-0.6-0.4-1
		c0,0-0.1,0-0.1,0c-0.3,0.2-0.7,0.3-1,0.5C24,15.3,25.3,17.4,25.7,18.2"/>
	<path class="st2" d="M41.8,43.5l-0.4-0.1c-1.2-0.2-2.4-0.3-3.6-0.5v0c-0.3,0.2-0.6,0.5-0.9,0.7c2.3,0.2,4.7,0.5,7,0.9
		c1.1-0.9,2.3-1.8,3.5-2.6c-1.7-0.3-3.4-0.5-5.2-0.7L41.8,43.5z"/>
	<path class="st2" d="M36.7,9.5l-2.3,3.7c0.4,0.2,0.7,0.3,1.1,0.5L36.7,9.5z"/>
</g>
</svg>
